<svg width="16" height="17" viewBox="0 0 16 17" fill="none" xmlns="http://www.w3.org/2000/svg">
<path fill-rule="evenodd" clip-rule="evenodd" d="M12 4.75C14.0711 4.75 15.75 6.42893 15.75 8.5V12.5C15.75 14.5711 14.0711 16.25 12 16.25H8C5.92893 16.25 4.25 14.5711 4.25 12.5V8.5C4.25 6.42893 5.92893 4.75 8 4.75H12ZM8 6.25C6.75736 6.25 5.75 7.25736 5.75 8.5V12.5C5.75 13.7426 6.75736 14.75 8 14.75H12C13.2426 14.75 14.25 13.7426 14.25 12.5V8.5C14.25 7.25736 13.2426 6.25 12 6.25H8Z" fill="#262420"/>
<path d="M8 0.75C9.339 0.75 10.5136 1.45193 11.1768 2.50781C11.4677 2.97113 11.0735 3.5 10.5264 3.5C10.2122 3.49992 9.93499 3.3129 9.73535 3.07031C9.32319 2.56953 8.69937 2.25 8 2.25H4C2.75736 2.25 1.75 3.25736 1.75 4.5V8.5C1.75 9.19921 2.06962 9.82241 2.57031 10.2344C2.81292 10.434 2.99996 10.7112 3 11.0254C3 11.5725 2.47119 11.9667 2.00781 11.6758C0.951993 11.0128 0.25 9.8389 0.25 8.5V4.5C0.25 2.42893 1.92893 0.75 4 0.75H8Z" fill="#262420"/>
</svg>
