<svg width="106" height="40" viewBox="0 0 106 40" fill="none" xmlns="http://www.w3.org/2000/svg">
<path d="M1.69096 17.4795C6.93608 16.6184 11.0487 12.5058 11.9098 7.26068L12.3326 4.70858C12.4108 4.21277 12.009 3.77959 11.5079 3.81612C7.51539 4.12404 3.75249 5.44967 1.67009 6.30037C0.662823 6.71268 0 7.69386 0 8.78985V16.8532C0 17.3282 0.422753 17.6883 0.892465 17.61L1.69096 17.4795Z" fill="black"/>
<path d="M14.4356 7.26068C15.2968 12.5058 19.4094 16.6184 24.6545 17.4795L25.453 17.61C25.9227 17.6883 26.3454 17.3282 26.3454 16.8532V8.78985C26.3454 7.69907 25.6826 6.71789 24.6753 6.30037C22.5982 5.44445 18.83 4.12404 14.8375 3.81612C14.3365 3.77959 13.9294 4.21277 14.0129 4.70858L14.4356 7.26068Z" fill="black"/>
<path d="M24.6589 20.0113C19.4138 20.8724 15.3012 24.985 14.44 30.2301L13.9181 35.2091C13.8712 35.6579 14.367 35.9763 14.7428 35.7258C14.7428 35.7258 14.748 35.7258 14.7532 35.7206C18.0412 33.5025 25.5461 27.6937 26.2872 20.4393C26.3238 20.0844 26.0054 19.7921 25.6557 19.8495L24.6641 20.0113H24.6589Z" fill="black"/>
<path d="M11.9075 30.2277C11.0464 24.9826 6.9338 20.87 1.68868 20.0088L0.618783 19.8314C0.305641 19.7792 0.0238052 20.0401 0.0551193 20.3585C0.759688 27.6547 8.36904 33.5 11.6831 35.7181C12.0276 35.9477 12.4816 35.6711 12.4399 35.2588L11.9128 30.2225L11.9075 30.2277Z" fill="black"/>
<path d="M62.7942 13.9541H60.297C60.1456 13.9541 60.0267 14.0731 60.0267 14.2244V21.4296C60.0267 22.3106 59.8807 23.0836 59.5889 23.7484C59.297 24.4133 58.8862 24.9214 58.3511 25.2673C57.8159 25.6133 57.1835 25.7862 56.4538 25.7862C55.4052 25.7862 54.616 25.4403 54.0917 24.7484C53.5674 24.0565 53.3026 23.062 53.3026 21.7701V14.2244C53.3026 14.0731 53.1837 13.9541 53.0323 13.9541H50.5081C50.3567 13.9541 50.2378 14.0731 50.2378 14.2244V22.0782C50.2378 23.2944 50.3891 24.3106 50.6864 25.1268C50.9837 25.943 51.3945 26.6024 51.908 27.1105C52.4215 27.6186 53.0107 27.9753 53.6809 28.1916C54.3458 28.4078 55.0431 28.5159 55.7728 28.5159C56.8214 28.5159 57.6916 28.3159 58.3889 27.9105C58.9024 27.6132 59.3348 27.2835 59.697 26.9159C59.8483 26.7592 60.1078 26.8456 60.151 27.0565L60.3456 28.1213C60.3672 28.251 60.4807 28.3429 60.6105 28.3429H62.7834C62.9347 28.3429 63.0536 28.224 63.0536 28.0726V14.2244C63.0536 14.0731 62.9347 13.9541 62.7834 13.9541H62.7942Z" fill="black"/>
<path d="M73.644 25.6749H70.3846C69.8062 25.6749 69.3954 25.556 69.163 25.3235C68.9306 25.0911 68.8117 24.6911 68.8117 24.129V16.8968C68.8117 16.7454 68.9306 16.6265 69.0819 16.6265H73.5034C73.6548 16.6265 73.7737 16.5076 73.7737 16.3562V14.2266C73.7737 14.0752 73.6548 13.9563 73.5034 13.9563H69.3522C69.0549 13.9563 68.8117 13.7131 68.8117 13.4158V9.85376C68.8117 9.70241 68.6928 9.5835 68.5414 9.5835H66.0442C65.8928 9.5835 65.7739 9.70241 65.7739 9.85376V24.4425C65.7739 25.756 66.082 26.7343 66.7036 27.3775C67.3198 28.0262 68.3144 28.3451 69.6819 28.3451H73.644C73.7953 28.3451 73.9142 28.2262 73.9142 28.0748V25.9451C73.9142 25.7938 73.7953 25.6749 73.644 25.6749Z" fill="black"/>
<path d="M86.3392 14.517C85.4852 14.0305 84.4907 13.7873 83.3447 13.7873C82.4475 13.7873 81.6205 13.9656 80.8691 14.3224C80.3286 14.5818 79.8475 14.9007 79.4367 15.2845C79.2638 15.4467 78.9881 15.3224 78.9881 15.0899V8.93872C78.9881 8.78737 78.8692 8.66846 78.7178 8.66846H76.1936C76.0423 8.66846 75.9233 8.78737 75.9233 8.93872V28.0733C75.9233 28.2247 76.0423 28.3436 76.1936 28.3436H78.7178C78.8692 28.3436 78.9881 28.2247 78.9881 28.0733V21.0627C78.9881 20.1276 79.1395 19.3168 79.4367 18.6304C79.734 17.9493 80.1611 17.4196 80.7178 17.0412C81.2691 16.6683 81.9232 16.4791 82.6691 16.4791C83.415 16.4791 84.0096 16.6466 84.4961 16.9872C84.9825 17.3223 85.3501 17.798 85.5933 18.4087C85.8366 19.0195 85.9609 19.7438 85.9609 20.5871V28.0733C85.9609 28.2247 86.0798 28.3436 86.2311 28.3436H88.7284C88.8797 28.3436 88.9986 28.2247 88.9986 28.0733V20.333C88.9986 18.8736 88.7716 17.6574 88.3122 16.6953C87.8527 15.7277 87.1987 15.0034 86.3446 14.517H86.3392Z" fill="black"/>
<path d="M104.469 12.9455C103.891 11.5239 103.064 10.4267 101.994 9.65913C100.923 8.89158 99.6423 8.50781 98.1451 8.50781C96.6478 8.50781 95.3884 8.89158 94.3073 9.65913C93.2317 10.4267 92.3993 11.5239 91.8209 12.9455C91.2426 14.3725 90.9507 16.0752 90.9507 18.0589V18.9561C90.9507 20.9615 91.2426 22.6804 91.8209 24.1128C92.3993 25.5451 93.2317 26.637 94.3073 27.3883C95.383 28.1397 96.664 28.5126 98.1451 28.5126C99.6261 28.5126 100.929 28.1397 101.994 27.3883C103.058 26.637 103.885 25.5451 104.469 24.1128C105.048 22.6804 105.339 20.9615 105.339 18.9561V18.0589C105.339 16.0752 105.048 14.3671 104.469 12.9455ZM94.0155 19.3021C94.0155 19.1507 94.0155 18.9994 94.0155 18.848V18.1724C94.0155 15.886 94.3722 14.1347 95.0857 12.9185C95.7992 11.7023 96.8208 11.0915 98.1505 11.0915C99.3883 11.0915 100.356 11.6158 101.058 12.6699C101.329 13.0482 101.096 13.5293 100.983 13.659L95.4424 19.8372C94.9506 20.3885 94.0425 20.048 94.0263 19.3129L94.0155 19.3021ZM102.275 18.848C102.275 21.1182 101.918 22.8587 101.204 24.0749C100.491 25.2911 99.4693 25.9019 98.1397 25.9019C96.9181 25.9019 95.9559 25.3884 95.2587 24.3614C94.9884 23.9884 95.2208 23.5128 95.3343 23.3776L100.853 17.1886C101.345 16.6373 102.253 16.9724 102.269 17.7129C102.269 17.8643 102.269 18.021 102.269 18.1778V18.8534L102.275 18.848Z" fill="black"/>
<path d="M48.5034 25.7041H48.4277C48.125 25.7041 47.9142 25.6393 47.7791 25.5095C47.6493 25.3798 47.5845 25.1366 47.5845 24.7798V19.0178C47.5845 17.3152 47.0602 16.0179 46.0115 15.1261C44.9629 14.2342 43.4927 13.791 41.6009 13.791C40.4009 13.791 39.3469 13.9802 38.4388 14.3531C37.5307 14.7261 36.8064 15.2558 36.2605 15.9423C35.7794 16.5476 35.4767 17.2449 35.347 18.0341C35.32 18.1962 35.4551 18.3476 35.6173 18.3476H38.0712C38.1956 18.3476 38.2983 18.2611 38.3307 18.1368C38.4766 17.5963 38.7955 17.153 39.2982 16.8125C39.8604 16.4287 40.5793 16.2341 41.4603 16.2341C42.4333 16.2341 43.1954 16.4612 43.7359 16.9206C44.2765 17.3801 44.5521 18.0125 44.5521 18.8178V19.4178C44.5521 19.5692 44.4332 19.6881 44.2819 19.6881H41.0117C39.028 19.6881 37.5145 20.0881 36.4713 20.8827C35.4335 21.6772 34.9092 22.8177 34.9092 24.2988C34.9092 25.1798 35.1362 25.9366 35.5848 26.5744C36.0335 27.2122 36.6551 27.6933 37.455 28.023C38.2496 28.3527 39.1631 28.5149 40.1955 28.5149C41.5468 28.5149 42.6441 28.2014 43.4981 27.5743C43.8711 27.2987 44.2062 26.9852 44.4981 26.6446C44.6386 26.4771 44.9143 26.5365 44.9629 26.7473C45.0386 27.1041 45.1845 27.4176 45.3954 27.6716C45.7683 28.1203 46.4656 28.3473 47.4764 28.3473H48.779C48.9304 28.3473 49.0493 28.2284 49.0493 28.077V26.1528C49.0493 25.7852 48.9304 25.7041 48.5088 25.7041H48.5034ZM44.5467 22.5313C44.5467 23.2231 44.39 23.8501 44.0711 24.4015C43.7522 24.9528 43.3035 25.3852 42.7198 25.6933C42.1414 26.0014 41.4333 26.1582 40.6117 26.1582C39.7901 26.1582 39.1631 25.9636 38.6874 25.5798C38.2118 25.196 37.9685 24.7042 37.9685 24.1042C37.9685 23.3745 38.2172 22.8285 38.7145 22.4718C39.2118 22.115 39.9252 21.9367 40.8658 21.9367H44.5467V22.5258V22.5313Z" fill="black"/>
</svg>
