<svg width="16" height="16" viewBox="0 0 16 16" fill="none" xmlns="http://www.w3.org/2000/svg">
<path d="M12.6667 11.3333C12.6667 10.597 12.0697 10 11.3333 10C10.597 10 10 10.597 10 11.3333C10 12.0697 10.597 12.6667 11.3333 12.6667C12.0697 12.6667 12.6667 12.0697 12.6667 11.3333ZM4.66667 2C5.91104 2 6.95573 2.85249 7.25 4.00521C7.2773 4.0018 7.30511 4 7.33333 4H13.3333C13.7015 4 14 4.29848 14 4.66667C14 5.03486 13.7015 5.33333 13.3333 5.33333H7.33333C7.30508 5.33333 7.27733 5.33089 7.25 5.32747C6.95595 6.4805 5.91126 7.33333 4.66667 7.33333C3.19391 7.33333 2 6.13943 2 4.66667C2 3.19391 3.19391 2 4.66667 2ZM14 11.3333C14 12.8061 12.8061 14 11.3333 14C10.0908 14 9.04668 13.1502 8.75065 12H3.33333C2.96514 12 2.66667 11.7015 2.66667 11.3333C2.66667 10.9651 2.96514 10.6667 3.33333 10.6667H8.75065C9.04668 9.51651 10.0908 8.66667 11.3333 8.66667C12.8061 8.66667 14 9.86057 14 11.3333ZM3.33333 4.66667C3.33333 5.40305 3.93029 6 4.66667 6C5.40305 6 6 5.40305 6 4.66667C6 3.93029 5.40305 3.33333 4.66667 3.33333C3.93029 3.33333 3.33333 3.93029 3.33333 4.66667Z" fill="#262420"/>
</svg>
