<svg width="24" height="24" viewBox="0 0 24 24" fill="none" xmlns="http://www.w3.org/2000/svg">
<path fill-rule="evenodd" clip-rule="evenodd" d="M11.625 0C18.0453 0 23.25 5.20469 23.25 11.625C23.25 18.0453 18.0453 23.25 11.625 23.25C5.20469 23.25 0 18.0453 0 11.625C0 5.20469 5.20469 0 11.625 0ZM2.32031 12.75C2.79375 16.7073 5.72961 19.9044 9.55371 20.7671L8.05078 18.1362C7.09059 16.4558 6.53102 14.6162 6.37061 12.75H2.32031ZM16.8794 12.75C16.719 14.6162 16.1594 16.4558 15.1992 18.1362L13.6948 20.7671C17.5196 19.9048 20.4562 16.7078 20.9297 12.75H16.8794ZM8.63379 12.75C8.78761 14.2299 9.24111 15.6858 10.0034 17.02L11.625 19.856L13.2466 17.02C14.0089 15.6858 14.4624 14.2299 14.6162 12.75H8.63379ZM9.55371 2.48145C5.72945 3.34406 2.79376 6.5426 2.32031 10.5H6.37061C6.53102 8.63383 7.09059 6.79418 8.05078 5.11377L9.55371 2.48145ZM10.0034 6.22998C9.24111 7.56421 8.78761 9.02011 8.63379 10.5H14.6162C14.4624 9.02011 14.0089 7.56421 13.2466 6.22998L11.625 3.39258L10.0034 6.22998ZM15.1992 5.11377C16.1594 6.79418 16.719 8.63383 16.8794 10.5H20.9297C20.4562 6.54212 17.5198 3.3436 13.6948 2.48145L15.1992 5.11377Z" fill="#262420" fill-opacity="0.5"/>
</svg>
