<svg width="18" height="22" viewBox="0 0 18 22" fill="none" xmlns="http://www.w3.org/2000/svg">
<path d="M16 5C13.6805 5 10.9706 3.66341 9.11035 2.04004C9.07963 2.01395 9.04031 2 9 2C8.95951 2 8.92043 2.01472 8.88965 2.04102L8.88867 2.04004C7.03932 3.65244 4.32008 5 2 5V12L2.00879 12.4121C2.09782 14.4376 2.8465 15.9389 3.98633 17.1064C5.22945 18.3796 6.98355 19.3001 8.99609 19.9951C9.00337 19.9976 9.01133 19.9993 9.01855 20.002C11.0236 19.3022 12.7728 18.3815 14.0137 17.1084C15.229 15.8615 16 14.2358 16 12V5ZM18 12C18 14.7641 17.021 16.8893 15.4463 18.5049C13.8988 20.0925 11.8204 21.1446 9.66895 21.8945L9.66113 21.8975C9.23301 22.0425 8.76877 22.0373 8.34375 21.8848V21.8857C8.33787 21.8837 8.33206 21.8809 8.32617 21.8789C8.32463 21.8783 8.32283 21.8785 8.32129 21.8779V21.877C6.17204 21.1325 4.09956 20.0851 2.55566 18.5039C1.07782 16.9903 0.125167 15.0283 0.0117188 12.5117L0 12V5C0.000119048 4.46973 0.210971 3.9609 0.585938 3.58594C0.960988 3.21101 1.46967 3 2 3L2.32129 2.98828C3.95847 2.86776 6.05352 1.86257 7.58203 0.527344L7.59082 0.520508C7.98374 0.184832 8.48322 0 9 0C9.51678 0 10.0163 0.184832 10.4092 0.520508L10.418 0.527344C12.0575 1.96075 14.3229 3 16 3C16.5303 3 17.039 3.21101 17.4141 3.58594C17.789 3.96091 17.9999 4.46973 18 5V12Z" fill="#262420" fill-opacity="0.5"/>
</svg>
