<svg width="21" height="17" viewBox="0 0 21 17" fill="none" xmlns="http://www.w3.org/2000/svg">
<path d="M0 8.30908C0 7.97152 0.121745 7.68376 0.365234 7.4458L7.4209 0.390137C7.55924 0.257324 7.70036 0.160482 7.84424 0.0996094C7.98812 0.0332031 8.132 0 8.27588 0C8.61344 0 8.89014 0.105143 9.10596 0.31543C9.32178 0.525716 9.42969 0.791341 9.42969 1.1123C9.42969 1.27832 9.39648 1.43327 9.33008 1.57715C9.26921 1.71549 9.1862 1.83724 9.08105 1.94238L6.375 4.67334L2.69775 8.06006L2.27441 7.33789L5.98486 7.14697H19.1831C19.5373 7.14697 19.825 7.25488 20.0464 7.4707C20.2677 7.68099 20.3784 7.96045 20.3784 8.30908C20.3784 8.65218 20.2677 8.93164 20.0464 9.14746C19.825 9.36328 19.5373 9.47119 19.1831 9.47119H5.98486L2.27441 9.27197L2.69775 8.55811L6.375 11.9448L9.08105 14.6675C9.1862 14.7726 9.26921 14.8944 9.33008 15.0327C9.39648 15.1766 9.42969 15.3343 9.42969 15.5059C9.42969 15.8213 9.32178 16.0841 9.10596 16.2944C8.89014 16.5103 8.61344 16.6182 8.27588 16.6182C7.97705 16.6182 7.70312 16.4964 7.4541 16.2529L0.365234 9.17236C0.121745 8.93441 0 8.64665 0 8.30908Z" fill="#09090B"/>
</svg>
