<svg width="22" height="22" viewBox="0 0 22 22" fill="none" xmlns="http://www.w3.org/2000/svg">
<path d="M11.2138 0.0146484C11.4242 0.0440917 11.6267 0.117601 11.8085 0.230469C11.9904 0.34335 12.1459 0.492449 12.2656 0.667969L12.373 0.851562V0.852539L14.6835 5.53125C14.764 5.69388 14.8825 5.83464 15.0292 5.94141C15.1762 6.04828 15.3475 6.11814 15.5273 6.14453H15.5263L20.6923 6.90039H20.6914C20.9032 6.93112 21.1051 7.00614 21.2851 7.11914L21.458 7.24414L21.6103 7.39258C21.7051 7.49819 21.7844 7.61658 21.8466 7.74414L21.9267 7.94141L21.9785 8.14844C22.0154 8.35762 22.0082 8.57349 21.957 8.78125C21.8886 9.05822 21.7442 9.31058 21.54 9.50977L21.539 9.51074L17.8037 13.1484C17.6735 13.2753 17.5758 13.4317 17.5195 13.6045C17.4633 13.7773 17.45 13.9615 17.4804 14.1406L18.3613 19.2764L18.3837 19.4893C18.3911 19.7025 18.3539 19.9159 18.2734 20.1152C18.166 20.3811 17.9859 20.6118 17.7539 20.7803C17.5218 20.9487 17.2469 21.0485 16.9609 21.0684C16.6748 21.0882 16.3888 21.0273 16.1357 20.8926V20.8916L11.5224 18.4668C11.3617 18.3825 11.1824 18.3389 11.0009 18.3389C10.8196 18.3389 10.641 18.3826 10.4804 18.4668L5.86421 20.8926L5.86518 20.8936C5.61217 21.0274 5.32649 21.0877 5.04096 21.0674C4.75556 21.047 4.48138 20.9475 4.24995 20.7793C4.01846 20.6109 3.83873 20.3806 3.73139 20.1152C3.65085 19.916 3.61376 19.7025 3.62104 19.4893L3.64253 19.2773L4.52339 14.1416C4.55408 13.9624 4.5405 13.7784 4.48432 13.6055C4.44214 13.4757 4.37693 13.3547 4.29194 13.249L4.20014 13.1484L0.463816 9.51172L0.464792 9.51074C0.260229 9.31213 0.114919 9.06086 0.0458468 8.78418C-0.0235145 8.50616 -0.0142518 8.21396 0.0741671 7.94141L0.154245 7.74316C0.247765 7.55129 0.38121 7.3805 0.545847 7.24219C0.765177 7.05794 1.03176 6.9386 1.31538 6.89844L6.47651 6.14453L6.60932 6.11621C6.74029 6.08062 6.86415 6.0216 6.97456 5.94141C7.12153 5.83462 7.24074 5.69411 7.32124 5.53125L9.62983 0.852539L9.63081 0.851562C9.75723 0.596139 9.95222 0.380877 10.1943 0.230469C10.4366 0.0800462 10.7167 0 11.0019 0L11.2138 0.0146484ZM16.3916 19.624V19.6191L16.3896 19.6113L16.3916 19.624ZM17.0712 19.125L17.0761 19.127C17.0739 19.1258 17.0715 19.1242 17.0693 19.123L17.0712 19.125ZM4.92964 19.126L4.93257 19.125L4.9355 19.123C4.9336 19.124 4.93152 19.125 4.92964 19.126ZM9.11421 6.41602V6.41699C8.89021 6.87031 8.5594 7.26235 8.15034 7.55957C7.74129 7.85669 7.26584 8.05012 6.76557 8.12305L2.53901 8.74023L5.59565 11.7158C5.95827 12.069 6.23009 12.5049 6.38667 12.9863C6.54323 13.4678 6.57962 13.9805 6.49409 14.4795L5.77339 18.6826L9.54975 16.6973V16.6963C9.99733 16.4613 10.4954 16.3389 11.0009 16.3389C11.5066 16.3389 12.0054 16.4612 12.4531 16.6963L16.2304 18.6826L15.5087 14.4795V14.4785C15.4235 13.9797 15.4616 13.4676 15.6181 12.9863C15.7747 12.5051 16.0457 12.069 16.4082 11.7158L19.4619 8.74121L15.2373 8.12305H15.2363C14.7366 8.04965 14.262 7.85656 13.8535 7.55957C13.4449 7.2624 13.1144 6.86993 12.8906 6.41699H12.8896L11.0009 2.5918L9.11421 6.41602Z" fill="#09090B" fill-opacity="0.35"/>
</svg>
