<svg width="24" height="22" viewBox="0 0 24 22" fill="none" xmlns="http://www.w3.org/2000/svg">
<path fill-rule="evenodd" clip-rule="evenodd" d="M18 0.875C21.1066 0.875 23.625 3.3934 23.625 6.5V15.5C23.625 18.6066 21.1066 21.125 18 21.125H6C2.8934 21.125 0.375 18.6066 0.375 15.5V6.5C0.375 3.3934 2.8934 0.875 6 0.875H18ZM14.5151 12.5C12.9317 13.2916 11.0683 13.2916 9.48486 12.5L2.625 9.06934V15.5C2.625 17.364 4.13604 18.875 6 18.875H18C19.864 18.875 21.375 17.364 21.375 15.5V9.06934L14.5151 12.5ZM6 3.125C4.13604 3.125 2.625 4.63604 2.625 6.5V6.5542L10.4912 10.4873C11.4412 10.9621 12.5588 10.9621 13.5088 10.4873L21.375 6.5542V6.5C21.375 4.63604 19.864 3.125 18 3.125H6Z" fill="#1F1F1F"/>
</svg>
