<svg width="16" height="16" viewBox="0 0 16 16" fill="none" xmlns="http://www.w3.org/2000/svg">
<g clip-path="url(#clip0_2074_1080)">
<path d="M14.0003 8.00008C14.0003 4.68637 11.314 2.00008 8.00033 2.00008C4.68662 2.00008 2.00033 4.68637 2.00033 8.00008C2.00033 11.3138 4.68662 14.0001 8.00033 14.0001C11.314 14.0001 14.0003 11.3138 14.0003 8.00008ZM8.00684 10.0001C8.37503 10.0001 8.6735 10.2986 8.6735 10.6667C8.6735 11.0349 8.37503 11.3334 8.00684 11.3334H8.00033C7.63214 11.3334 7.33366 11.0349 7.33366 10.6667C7.33366 10.2986 7.63214 10.0001 8.00033 10.0001H8.00684ZM7.33366 8.00008V5.33342C7.33366 4.96523 7.63214 4.66675 8.00033 4.66675C8.36852 4.66675 8.66699 4.96523 8.66699 5.33342V8.00008C8.66699 8.36827 8.36852 8.66675 8.00033 8.66675C7.63214 8.66675 7.33366 8.36827 7.33366 8.00008ZM15.3337 8.00008C15.3337 12.0502 12.0504 15.3334 8.00033 15.3334C3.95024 15.3334 0.666992 12.0502 0.666992 8.00008C0.666992 3.94999 3.95024 0.666748 8.00033 0.666748C12.0504 0.666748 15.3337 3.94999 15.3337 8.00008Z" fill="#CA3B2B"/>
</g>
<defs>
<clipPath id="clip0_2074_1080">
<rect width="16" height="16" fill="white"/>
</clipPath>
</defs>
</svg>
