<svg width="21" height="20" viewBox="0 0 21 20" fill="none" xmlns="http://www.w3.org/2000/svg">
<path d="M9 9.375C9.77896 9.375 10.535 9.47314 11.2559 9.65918C11.3013 10.6343 11.5814 11.548 12.0381 12.3472C11.1248 11.886 10.093 11.625 9 11.625C5.27208 11.625 2.25 14.6471 2.25 18.375C2.25 18.4233 2.25041 18.472 2.25146 18.52C2.26655 19.2206 1.7525 19.875 1.05176 19.875C0.518427 19.875 0.054833 19.49 0.019043 18.958C0.00621027 18.7655 0 18.5707 0 18.375C0 13.4044 4.02944 9.375 9 9.375Z" fill="#1F1F1F"/>
<path fill-rule="evenodd" clip-rule="evenodd" d="M17.25 5.625C19.3211 5.625 21 7.30393 21 9.375C21 11.054 19.8962 12.4742 18.375 12.9521V14.25H18.75C19.3713 14.25 19.875 14.7537 19.875 15.375C19.875 15.9963 19.3713 16.5 18.75 16.5H18.375V17.25H18.75C19.3713 17.25 19.875 17.7537 19.875 18.375C19.875 18.9963 19.3713 19.5 18.75 19.5H17.25C16.6287 19.5 16.125 18.9963 16.125 18.375V12.9521C14.6038 12.4742 13.5 11.054 13.5 9.375C13.5 7.30393 15.1789 5.625 17.25 5.625ZM17.25 7.875C16.4216 7.875 15.75 8.54657 15.75 9.375C15.75 10.2034 16.4216 10.875 17.25 10.875C18.0784 10.875 18.75 10.2034 18.75 9.375C18.75 8.54657 18.0784 7.875 17.25 7.875Z" fill="#1F1F1F"/>
<path fill-rule="evenodd" clip-rule="evenodd" d="M9 0C11.2782 0 13.125 1.84683 13.125 4.125C13.125 6.40317 11.2782 8.25 9 8.25C6.72183 8.25 4.875 6.40317 4.875 4.125C4.875 1.84683 6.72183 0 9 0ZM9 2.25C7.96447 2.25 7.125 3.08947 7.125 4.125C7.125 5.16053 7.96447 6 9 6C10.0355 6 10.875 5.16053 10.875 4.125C10.875 3.08947 10.0355 2.25 9 2.25Z" fill="#1F1F1F"/>
</svg>
