<svg width="24" height="6" viewBox="0 0 24 6" fill="none" xmlns="http://www.w3.org/2000/svg">
<path d="M4.67911 0.447059C5.11849 0.00817309 5.83075 0.00787023 6.26993 0.447059C6.70867 0.886283 6.70867 1.59865 6.26993 2.03788L5.30753 3.00028L6.26847 3.96122L6.34611 4.04764C6.70623 4.48951 6.68025 5.14172 6.26847 5.5535C5.85683 5.9644 5.20567 5.99054 4.76408 5.63114L4.67765 5.5535L3.71671 4.5911L2.75431 5.5535C2.31506 5.99199 1.60263 5.99216 1.16349 5.5535C0.724149 5.11416 0.724149 4.40056 1.16349 3.96122L2.12589 3.00028L1.16349 2.03788C0.724281 1.59867 0.724545 0.88643 1.16349 0.447059C1.60286 0.00811476 2.3151 0.00785078 2.75431 0.447059L3.71671 1.40946L4.67911 0.447059Z" fill="black"/>
<path d="M12.9628 0.447059C13.4021 0.00796205 14.1143 0.00800326 14.5536 0.447059C14.9925 0.886375 14.9927 1.59866 14.5536 2.03788L13.5912 3.00028L14.5522 3.96122L14.6298 4.04764C14.9899 4.48951 14.9639 5.14172 14.5522 5.5535C14.1404 5.96423 13.4893 5.99076 13.0478 5.63114L12.9613 5.5535L12.0004 4.5911L11.0395 5.5535C10.6004 5.99229 9.88797 5.99186 9.44865 5.5535C9.00931 5.11416 9.00931 4.40056 9.44865 3.96122L10.4096 3.00028L9.44718 2.03788C9.00826 1.59865 9.00833 0.886334 9.44718 0.447059C9.88643 0.0079232 10.5987 0.00804216 11.038 0.447059L12.0004 1.40946L12.9628 0.447059Z" fill="black"/>
<path d="M21.2465 0.447059C21.6857 0.00789119 22.3979 0.00823595 22.8373 0.447059C23.2763 0.88643 23.2765 1.59867 22.8373 2.03788L21.8764 3.00028L22.8373 3.96122L22.915 4.04764C23.2751 4.48951 23.2491 5.14173 22.8373 5.5535C22.4255 5.96476 21.7731 5.99117 21.3315 5.63114L21.2465 5.5535L20.2841 4.5911L19.3232 5.5535C18.884 5.9921 18.1715 5.99205 17.7323 5.5535C17.293 5.11416 17.293 4.40056 17.7323 3.96122L18.6933 3.00028L17.7309 2.03788C17.2923 1.59868 17.2923 0.886253 17.7309 0.447059C18.1702 0.00771877 18.8838 0.00771877 19.3232 0.447059L20.2841 1.40946L21.2465 0.447059Z" fill="black"/>
</svg>
