<svg width="22" height="14" viewBox="0 0 22 14" fill="none" xmlns="http://www.w3.org/2000/svg">
<path d="M6.29289 0.292893C6.68342 -0.0976311 7.31643 -0.0976311 7.70696 0.292893C8.09748 0.683418 8.09748 1.31643 7.70696 1.70696L2.41399 6.99992L7.70696 12.2929L7.77532 12.3691C8.09567 12.7618 8.07307 13.3408 7.70696 13.707C7.34084 14.0731 6.76184 14.0957 6.36907 13.7753L6.29289 13.707L0.292893 7.70696C-0.0976311 7.31643 -0.0976311 6.68342 0.292893 6.29289L6.29289 0.292893ZM14.2929 0.292893C14.6834 -0.0976311 15.3164 -0.0976311 15.707 0.292893L21.707 6.29289C22.0975 6.68342 22.0975 7.31643 21.707 7.70696L15.707 13.707C15.3164 14.0975 14.6834 14.0975 14.2929 13.707C13.9024 13.3164 13.9024 12.6834 14.2929 12.2929L19.5859 6.99992L14.2929 1.70696L14.2245 1.63078C13.9042 1.23801 13.9268 0.659009 14.2929 0.292893Z" fill="#09090B" fill-opacity="0.35"/>
</svg>
