<svg width="24" height="22" viewBox="0 0 24 22" fill="none" xmlns="http://www.w3.org/2000/svg">
<path d="M13.5 10.125C14.1213 10.125 14.625 10.6287 14.625 11.25C14.625 11.8713 14.1213 12.375 13.5 12.375H6C5.37868 12.375 4.875 11.8713 4.875 11.25C4.875 10.6287 5.37868 10.125 6 10.125H13.5Z" fill="#1F1F1F"/>
<path d="M18 5.625C18.6213 5.625 19.125 6.12868 19.125 6.75C19.125 7.37132 18.6213 7.875 18 7.875H6C5.37868 7.875 4.875 7.37132 4.875 6.75C4.875 6.12868 5.37868 5.625 6 5.625H18Z" fill="#1F1F1F"/>
<path fill-rule="evenodd" clip-rule="evenodd" d="M18 0.375C21.1066 0.375 23.625 2.8934 23.625 6V12C23.625 15.1066 21.1066 17.625 18 17.625H8.54736C7.43612 17.6252 6.40193 18.1723 5.77441 19.0781L5.6543 19.2642L5.25146 19.9351C3.88171 22.218 0.375 21.2468 0.375 18.5845V6C0.375 2.8934 2.8934 0.375 6 0.375H18ZM6 2.625C4.13604 2.625 2.625 4.13604 2.625 6V18.5845C2.625 18.7057 2.66011 18.7753 2.69678 18.8203C2.73998 18.8733 2.81076 18.9215 2.90039 18.9463C2.98956 18.9709 3.07356 18.9649 3.1377 18.9419C3.19231 18.9222 3.25988 18.8818 3.32227 18.7778L3.7251 18.1055L3.92432 17.7964C4.97022 16.2864 6.69508 15.3752 8.54736 15.375H18C19.864 15.375 21.375 13.864 21.375 12V6C21.375 4.13604 19.864 2.625 18 2.625H6Z" fill="#1F1F1F"/>
</svg>
