<svg width="18" height="24" viewBox="0 0 18 24" fill="none" xmlns="http://www.w3.org/2000/svg">
<path d="M10.5 4.875C11.1213 4.875 11.625 5.37868 11.625 6C11.625 6.62132 11.1213 7.125 10.5 7.125H7.5C6.87868 7.125 6.375 6.62132 6.375 6C6.375 5.37868 6.87868 4.875 7.5 4.875H10.5Z" fill="#1F1F1F"/>
<path fill-rule="evenodd" clip-rule="evenodd" d="M12 0.375C15.1066 0.375 17.625 2.8934 17.625 6V18C17.625 21.1066 15.1066 23.625 12 23.625H6C2.8934 23.625 0.375 21.1066 0.375 18V6C0.375 2.8934 2.8934 0.375 6 0.375H12ZM6 2.625C4.13604 2.625 2.625 4.13604 2.625 6V18C2.625 19.864 4.13604 21.375 6 21.375H12C13.864 21.375 15.375 19.864 15.375 18V6C15.375 4.13604 13.864 2.625 12 2.625H6Z" fill="#1F1F1F"/>
</svg>
