<svg width="16" height="20" viewBox="0 0 16 20" fill="none" xmlns="http://www.w3.org/2000/svg">
<path d="M14 19V17C14 16.2044 13.6837 15.4415 13.1211 14.8789C12.6289 14.3867 11.9835 14.0829 11.2969 14.0146L11 14H5C4.20435 14 3.44152 14.3163 2.87891 14.8789C2.3163 15.4415 2 16.2044 2 17V19C2 19.5523 1.55228 20 1 20C0.447715 20 0 19.5523 0 19V17C0 15.6739 0.527162 14.4025 1.46484 13.4648C2.40253 12.5272 3.67392 12 5 12H11C12.3261 12 13.5975 12.5272 14.5352 13.4648C15.4728 14.4025 16 15.6739 16 17V19C16 19.5523 15.5523 20 15 20C14.4477 20 14 19.5523 14 19ZM11 5C11 3.34315 9.65685 2 8 2C6.34315 2 5 3.34315 5 5C5 6.65685 6.34315 8 8 8C9.65685 8 11 6.65685 11 5ZM13 5C13 7.76142 10.7614 10 8 10C5.23858 10 3 7.76142 3 5C3 2.23858 5.23858 0 8 0C10.7614 0 13 2.23858 13 5Z" fill="#09090B" fill-opacity="0.35"/>
</svg>
