<svg width="18" height="22" viewBox="0 0 18 22" fill="none" xmlns="http://www.w3.org/2000/svg">
<path d="M16 13C16 9.13401 12.866 6 9 6C5.13401 6 2 9.13401 2 13C2 16.866 5.13401 20 9 20C12.866 20 16 16.866 16 13ZM11.293 9.29297C11.6835 8.90244 12.3165 8.90244 12.707 9.29297C13.0976 9.68349 13.0976 10.3165 12.707 10.707L9.70703 13.707C9.31651 14.0976 8.68349 14.0976 8.29297 13.707C7.90244 13.3165 7.90244 12.6835 8.29297 12.293L11.293 9.29297ZM11 0C11.5523 0 12 0.447715 12 1C12 1.55228 11.5523 2 11 2H7C6.44772 2 6 1.55228 6 1C6 0.447715 6.44772 0 7 0H11ZM18 13C18 17.9706 13.9706 22 9 22C4.02944 22 0 17.9706 0 13C0 8.02944 4.02944 4 9 4C13.9706 4 18 8.02944 18 13Z" fill="#09090B" fill-opacity="0.35"/>
</svg>
