<svg width="18" height="24" viewBox="0 0 18 24" fill="none" xmlns="http://www.w3.org/2000/svg">
<path d="M10.125 4.5C10.7463 4.5 11.25 5.00368 11.25 5.625C11.25 6.24632 10.7463 6.75 10.125 6.75H7.125C6.50368 6.75 6 6.24632 6 5.625C6 5.00368 6.50368 4.5 7.125 4.5H10.125Z" fill="black"/>
<path fill-rule="evenodd" clip-rule="evenodd" d="M11.625 0C14.7316 9.66399e-08 17.25 2.5184 17.25 5.625V17.625C17.25 20.7316 14.7316 23.25 11.625 23.25H5.625C2.5184 23.25 2.41596e-08 20.7316 0 17.625V5.625C1.9328e-07 2.5184 2.5184 9.66384e-08 5.625 0H11.625ZM5.625 2.25C3.76104 2.25 2.25 3.76104 2.25 5.625V17.625C2.25 19.489 3.76104 21 5.625 21H11.625C13.489 21 15 19.489 15 17.625V5.625C15 3.76104 13.489 2.25 11.625 2.25H5.625Z" fill="black"/>
</svg>
